<?xml version="1.0" standalone="no"?>
<!DOCTYPE svg PUBLIC "-//W3C//DTD SVG 1.1//EN" "http://www.w3.org/Graphics/SVG/1.1/DTD/svg11.dtd" >
<svg xmlns="http://www.w3.org/2000/svg" xmlns:xlink="http://www.w3.org/1999/xlink" version="1.1">
<metadata>
Created by FontForge 20190801 at Thu Oct 11 07:36:01 2018
 By Unknown
Copyright (c) 2018 by Adam Ladd. All rights reserved.
</metadata>
<defs>
<font id="QuicheSans-Regular" horiz-adv-x="0" >
  <font-face 
    font-family="QuicheSans-Regular"
    font-weight="400"
    font-stretch="normal"
    units-per-em="1000"
    panose-1="0 0 5 0 0 0 0 0 0 0"
    ascent="760"
    descent="-240"
    x-height="500"
    cap-height="700"
    bbox="-109 -280 1082 730"
    underline-thickness="20"
    underline-position="-100"
    unicode-range="U+0020-FB02"
  />
<missing-glyph horiz-adv-x="500" 
d="M410 720v-1000h-317v1000h317zM333 653h-165v-33h65v-37h-66v-33h166v33h-66v37h66v33zM267 524h-100v-104h166v34h-66v70zM233 490v-36h-33v36h33zM333 393h-166v-33h66v-37h-66v-33h100v70h66v33zM333 333h-33v-66h-133v-34h166v100zM333 211h-100v-56h34v23h33v-47
h-100v80h-33v-113h166v113zM333 38h-166v-113h166v113zM300 5v-47h-100v47h100zM333 -98h-166v-33h70l-70 -47v-33h166v33h-102l70 47h32v33z" />
    <glyph glyph-name="fi" unicode="fi" horiz-adv-x="574" 
d="M322 706q-60 0 -95.5 -34.5t-35.5 -87.5v-84h110v-20h-110v-480h-89v480h-64v20h64v51q0 77 57 128t146 51q63 0 108 -33.5t45 -81.5h-21q0 38 -35 64.5t-80 26.5zM400 483l89 22v-505h-89v483z" />
    <glyph glyph-name="fl" unicode="fl" horiz-adv-x="596" 
d="M424 709l87 21v-730h-89v689q-32 17 -85 17q-68 0 -107 -33.5t-39 -86.5v-86h112v-20h-112v-480h-89v480h-64v20h64v53q0 76 60 126.5t155 50.5q63 0 107 -21z" />
    <glyph glyph-name="f_f.liga" unicode="ff" 
 />
    <glyph glyph-name="f_f_i.liga" unicode="ffi" 
 />
    <glyph glyph-name="f_f_l.liga" unicode="ffl" 
 />
    <glyph glyph-name=".notdef" horiz-adv-x="500" 
d="M410 720v-1000h-317v1000h317zM333 653h-165v-33h65v-37h-66v-33h166v33h-66v37h66v33zM267 524h-100v-104h166v34h-66v70zM233 490v-36h-33v36h33zM333 393h-166v-33h66v-37h-66v-33h100v70h66v33zM333 333h-33v-66h-133v-34h166v100zM333 211h-100v-56h34v23h33v-47
h-100v80h-33v-113h166v113zM333 38h-166v-113h166v113zM300 5v-47h-100v47h100zM333 -98h-166v-33h70l-70 -47v-33h166v33h-102l70 47h32v33z" />
    <glyph glyph-name=".null" 
 />
    <glyph glyph-name="nonmarkingreturn" horiz-adv-x="333" 
 />
    <glyph glyph-name="space" unicode=" " horiz-adv-x="269" 
 />
    <glyph glyph-name="quotesingle" unicode="'" horiz-adv-x="194" 
d="M88 487q-4 50 -22 103.5t-18 68.5q0 22 14 36.5t35 14.5q22 0 36 -14.5t14 -36.5q0 -15 -18.5 -68.5t-22.5 -103.5h-18z" />
    <glyph glyph-name="parenleft" unicode="(" horiz-adv-x="340" 
d="M299 -130q-97 58 -159.5 179.5t-62.5 250.5t62.5 250.5t159.5 179.5l10 -11q-66 -52 -104.5 -164.5t-38.5 -254.5t38.5 -254.5t104.5 -164.5z" />
    <glyph glyph-name="parenright" unicode=")" horiz-adv-x="340" 
d="M41 -130l-10 11q66 52 104.5 164.5t38.5 254.5t-38.5 254.5t-104.5 164.5l10 11q97 -58 159.5 -179.5t62.5 -250.5t-62.5 -250.5t-159.5 -179.5z" />
    <glyph glyph-name="asterisk" unicode="*" horiz-adv-x="346" 
d="M284 553q22 -13 10 -34q-5 -9 -15.5 -11.5t-19.5 3.5q-6 3 -31 26.5t-49 39.5q2 -26 10 -59.5t8 -40.5q0 -12 -7.5 -20t-17.5 -8t-17.5 7.5t-7.5 19.5q0 8 8.5 41t10.5 59q-22 -14 -49 -38.5t-31 -26.5q-21 -13 -35 8q-12 21 10 34q7 5 40.5 14.5t56.5 21.5
q-25 13 -58.5 23t-38.5 13q-10 5 -13 15.5t2 18.5q12 22 36 9q7 -4 33 -29t47 -38q-2 27 -10.5 61t-8.5 41q0 12 7.5 19.5t17.5 7.5t17.5 -8t7.5 -20q0 -7 -8 -41t-10 -61q23 14 49 39.5t31 28.5q23 13 36 -9q5 -8 2 -18t-13 -16q-6 -3 -40 -13.5t-58 -22.5
q23 -12 57.5 -22.5t40.5 -13.5z" />
    <glyph glyph-name="plus" unicode="+" horiz-adv-x="550" 
d="M475 310v-20h-189v-190h-22v190h-189v20h189v190h22v-190h189z" />
    <glyph glyph-name="comma" unicode="," horiz-adv-x="215" 
d="M109 118q26 0 45 -19.5t19 -53.5q0 -45 -30 -94t-68 -69l-11 13q23 16 41.5 45.5t23.5 58.5q-10 -4 -20 -4q-26 0 -44 17.5t-18 43.5t18 44t44 18z" />
    <glyph glyph-name="hyphen" unicode="-" horiz-adv-x="429" 
d="M75 260v20h279v-20h-279z" />
    <glyph glyph-name="period" unicode="." horiz-adv-x="217" 
d="M109 -5q-26 0 -44 17.5t-18 43.5t18 44.5t44 18.5t44 -18.5t18 -44.5t-18 -43.5t-44 -17.5z" />
    <glyph glyph-name="zero" unicode="0" horiz-adv-x="719" 
d="M359 -10q-126 0 -210 103t-84 257t84 257t210 103q127 0 211 -103t84 -257t-84 -257t-211 -103zM359 10q92 0 147 92.5t55 247.5t-55 247.5t-147 92.5t-146.5 -92.5t-54.5 -247.5t54.5 -247.5t146.5 -92.5z" />
    <glyph glyph-name="one" unicode="1" horiz-adv-x="396" 
d="M232 700h53v-700h-89v633q-51 -56 -145 -76l-7 20q50 13 104 48t84 75z" />
    <glyph glyph-name="three" unicode="3" horiz-adv-x="596" 
d="M361 363q80 -17 129 -68t49 -118q0 -80 -69 -133.5t-175 -53.5q-96 0 -160 46t-64 116h22q0 -59 51 -98.5t128 -39.5q83 0 129.5 45.5t46.5 123.5q0 77 -45 123.5t-121 46.5h-69v20h69q67 0 107 43t40 114q0 72 -41 114t-116 42q-72 0 -120.5 -39.5t-48.5 -98.5h-22
q0 70 61.5 116t153.5 46q97 0 159.5 -49t62.5 -124q0 -60 -44 -108.5t-113 -65.5z" />
    <glyph glyph-name="four" unicode="4" horiz-adv-x="604" 
d="M572 219v-20h-111v-199h-89v199h-339v15l351 486h77v-481h111zM67 219h305v423z" />
    <glyph glyph-name="five" unicode="5" horiz-adv-x="596" 
d="M298 463q107 0 178.5 -67.5t71.5 -170.5q0 -102 -71.5 -168.5t-183.5 -66.5q-95 0 -159 49t-64 123h22q0 -63 51.5 -105.5t128.5 -42.5q86 0 134.5 57t48.5 153q0 97 -48.5 156t-128.5 59q-44 0 -85.5 -16t-66.5 -43l-21 12l39 308h353l-8 -61h-331l-30 -231
q24 24 71.5 39.5t98.5 15.5z" />
    <glyph glyph-name="six" unicode="6" horiz-adv-x="632" 
d="M343 446q99 0 167.5 -64t68.5 -160q0 -99 -72 -165.5t-176 -66.5q-117 0 -191.5 87t-74.5 234q0 105 37.5 196t107.5 147t155 56q70 0 119 -39.5t49 -96.5h-22q0 49 -37 81t-94 32q-98 0 -157 -92t-64 -251q20 45 69 73.5t115 28.5zM323 10q77 0 120 56.5t43 152.5
q0 95 -43 149t-120 54t-120 -54.5t-43 -149.5q0 -96 43.5 -152t119.5 -56z" />
    <glyph glyph-name="eight" unicode="8" horiz-adv-x="618" 
d="M395 366q75 -34 116.5 -75t41.5 -106q0 -86 -70.5 -140.5t-175.5 -54.5q-102 0 -172 50.5t-70 128.5q0 56 38 107.5t98 78.5q-119 66 -119 166q0 82 65 135.5t161 53.5q93 0 154.5 -49.5t61.5 -122.5q0 -54 -35 -100.5t-94 -71.5zM153 556q0 -25 10.5 -46.5t25.5 -36.5
t42.5 -31t49.5 -26.5t59 -25.5l36 -15q50 23 80.5 66.5t30.5 93.5q0 66 -48.5 110t-123.5 44q-69 0 -115.5 -38t-46.5 -95zM302 11q78 0 129 37.5t51 95.5q0 31 -14.5 56t-46 46t-58 34t-71.5 32q-47 20 -71 33q-53 -24 -86 -72.5t-33 -101.5q0 -69 57 -114.5t143 -45.5z
" />
    <glyph glyph-name="A" unicode="A" horiz-adv-x="712" 
d="M589 0l-90 207h-350l-91 -207h-28l307 700h39l306 -700h-93zM157 227h333l-166 381z" />
    <glyph glyph-name="C" unicode="C" horiz-adv-x="746" 
d="M420 -10q-157 0 -263.5 102.5t-106.5 257.5q0 153 105 256.5t264 103.5q116 0 193.5 -52.5t77.5 -128.5h-22q0 66 -64.5 111t-163.5 45q-136 0 -216.5 -91t-80.5 -243q0 -153 80.5 -244.5t213.5 -91.5q80 0 142 34t96 93h23q-32 -67 -107.5 -109.5t-170.5 -42.5z" />
    <glyph glyph-name="I" unicode="I" horiz-adv-x="280" 
d="M96 0v700h89v-700h-89z" />
    <glyph glyph-name="P" unicode="P" horiz-adv-x="678" 
d="M391 700q109 0 181.5 -62t72.5 -156t-72.5 -156t-181.5 -62h-206v-264h-89v700h295zM372 284q82 0 131 54.5t49 143.5t-49 143.5t-131 54.5h-187v-396h187z" />
    <glyph glyph-name="T" unicode="T" horiz-adv-x="615" 
d="M588 700v-20h-235v-680h-89v680h-237v20h561z" />
    <glyph glyph-name="U" unicode="U" horiz-adv-x="761" 
d="M394 -10q-135 0 -220 79t-85 208v423h89v-439q0 -109 65 -174t173 -65q107 0 169.5 65t62.5 174v439h24v-440q0 -123 -74.5 -196.5t-203.5 -73.5z" />
    <glyph glyph-name="W" unicode="W" horiz-adv-x="1112" 
d="M1054 700h28l-307 -700h-39l-180 412l-181 -412h-39l-306 700h93l265 -608l154 352l-112 256h93l266 -609z" />
    <glyph glyph-name="bracketleft" unicode="[" horiz-adv-x="313" 
d="M282 700h-112v-800h112v-20h-191v840h191v-20z" />
    <glyph glyph-name="backslash" unicode="\" horiz-adv-x="442" 
d="M384 -130l-331 860h26l331 -860h-26z" />
    <glyph glyph-name="bracketright" unicode="]" horiz-adv-x="313" 
d="M222 720v-840h-191v20h112v800h-112v20h191z" />
    <glyph glyph-name="asciicircum" unicode="^" horiz-adv-x="495" 
d="M448 400h-26l-174 268l-174 -268h-26l194 300h12z" />
    <glyph glyph-name="underscore" unicode="_" horiz-adv-x="473" 
d="M47 -100v20h379v-20h-379z" />
    <glyph glyph-name="grave" unicode="`" horiz-adv-x="184" 
d="M162 586l-162 122h121l63 -122h-22z" />
    <glyph glyph-name="a" unicode="a" horiz-adv-x="579" 
d="M282 510q98 0 160.5 -50t62.5 -126v-334h-89v74q-31 -38 -83 -61t-106 -23q-74 0 -125.5 40.5t-51.5 100.5q0 63 59.5 104t152.5 41q103 0 154 -33v113q0 58 -42 94.5t-111 36.5q-65 0 -112 -31t-47 -76h-21q0 55 58.5 92.5t140.5 37.5zM263 26q45 0 86 20.5t67 55.5v119
q-42 32 -127 32q-70 0 -108 -30.5t-38 -84.5q0 -50 33 -81t87 -31z" />
    <glyph glyph-name="b" unicode="b" horiz-adv-x="634" 
d="M349 510q98 0 167 -75t69 -185t-69 -185t-169 -75q-107 0 -172 80v-70h-89v708l89 22v-310q29 42 74.5 66t99.5 24zM324 19q75 0 121.5 63t46.5 168q0 104 -46 167.5t-119 63.5q-46 0 -86 -26t-66 -73v-270q24 -43 63 -68t86 -25z" />
    <glyph glyph-name="c" unicode="c" horiz-adv-x="555" 
d="M316 -10q-116 0 -191.5 75t-75.5 185q0 111 76 185.5t190 74.5q79 0 132.5 -36t53.5 -91h-21q0 44 -41.5 73.5t-104.5 29.5q-89 0 -140.5 -64t-51.5 -172t52 -172t140 -64q49 0 90.5 21t60.5 55h21q-20 -44 -71.5 -72t-118.5 -28z" />
    <glyph glyph-name="d" unicode="d" horiz-adv-x="634" 
d="M459 708l89 22v-730h-89v71q-30 -37 -75 -59t-97 -22q-100 0 -169 75t-69 185t69 185t167 75q54 0 99.5 -24t74.5 -66v288zM310 19q47 0 86.5 25t62.5 69v268q-25 47 -65 73.5t-87 26.5q-74 0 -119.5 -63.5t-45.5 -167.5q0 -105 46.5 -168t121.5 -63z" />
    <glyph glyph-name="e" unicode="e" horiz-adv-x="593" 
d="M343 13q53 0 97.5 21.5t66.5 58.5h22q-23 -47 -79 -75t-126 -28q-120 0 -197.5 74.5t-77.5 185.5t75 185.5t183 74.5q104 0 170.5 -70t66.5 -175h-402v-7q0 -115 54 -180t147 -65zM304 490q-67 0 -111 -56t-50 -149h312q-3 94 -43.5 149.5t-107.5 55.5z" />
    <glyph glyph-name="f" unicode="f" horiz-adv-x="343" 
d="M269 730q55 0 92 -25t37 -62h-21q0 27 -26 44.5t-65 17.5q-42 0 -68.5 -27t-26.5 -68v-110h116v-20h-116v-480h-89v480h-64v20h64v77q0 65 47.5 109t119.5 44z" />
    <glyph glyph-name="g" unicode="g" horiz-adv-x="630" 
d="M459 483l89 22v-539q0 -84 -68.5 -140t-174.5 -56q-87 0 -148 43.5t-61 106.5h21q0 -54 49 -90.5t119 -36.5q77 0 125.5 42.5t48.5 106.5v129q-30 -37 -75 -59t-97 -22q-100 0 -169 75t-69 185t69 185t167 75q54 0 99.5 -24t74.5 -66v63zM310 19q47 0 86.5 25t62.5 69
v268q-25 47 -65 73.5t-87 26.5q-74 0 -119.5 -63.5t-45.5 -167.5q0 -105 46.5 -168t121.5 -63z" />
    <glyph glyph-name="h" unicode="h" horiz-adv-x="618" 
d="M364 510q78 0 129 -48.5t51 -121.5v-340h-89v362q0 49 -33.5 81.5t-85.5 32.5q-50 0 -94.5 -29.5t-66.5 -76.5v-370h-89v708l89 22v-325q27 47 78.5 76t110.5 29z" />
    <glyph glyph-name="i" unicode="i" horiz-adv-x="261" 
d="M132 593q-25 0 -41 16t-16 39q0 24 16 39.5t41 15.5q23 0 38.5 -15.5t15.5 -39.5q0 -23 -15.5 -39t-38.5 -16zM86 0v483l89 22v-505h-89z" />
    <glyph glyph-name="j" unicode="j" horiz-adv-x="265" 
d="M137 593q-25 0 -41 16t-16 39q0 24 16 39.5t41 15.5q23 0 38 -15.5t15 -39.5q0 -23 -15.5 -39t-37.5 -16zM15 -230q-53 0 -88.5 25t-35.5 62h21q0 -27 25 -45.5t60 -18.5q42 0 68 27t26 68v595l89 22v-584q0 -65 -47.5 -108t-117.5 -43z" />
    <glyph glyph-name="k" unicode="k" horiz-adv-x="520" 
d="M418 0l-200 268l-43 -39v-229h-89v708l89 22v-471l272 241h35l-202 -178l241 -322h-103z" />
    <glyph glyph-name="l" unicode="l" horiz-adv-x="260" 
d="M86 0v708l89 22v-730h-89z" />
    <glyph glyph-name="m" unicode="m" horiz-adv-x="937" 
d="M693 510q73 0 121.5 -48.5t48.5 -121.5v-340h-89v362q0 49 -31 81.5t-77 32.5t-87.5 -32t-60.5 -81q1 -8 1 -23v-340h-89v362q0 49 -31 81.5t-77 32.5q-45 0 -86 -29.5t-61 -76.5v-370h-89v483l89 22v-98q25 46 72 74.5t102 28.5q59 0 103 -32.5t60 -85.5q22 52 72 85
t109 33z" />
    <glyph glyph-name="n" unicode="n" horiz-adv-x="618" 
d="M365 510q78 0 128.5 -48.5t50.5 -121.5v-340h-89v362q0 49 -33.5 81.5t-85.5 32.5q-50 0 -94.5 -29.5t-66.5 -76.5v-370h-89v483l89 22v-100q27 47 78.5 76t111.5 29z" />
    <glyph glyph-name="o" unicode="o" horiz-adv-x="625" 
d="M312 -10q-112 0 -187.5 74.5t-75.5 185.5t75.5 185.5t187.5 74.5q113 0 188.5 -74.5t75.5 -185.5t-75.5 -185.5t-188.5 -74.5zM312 10q78 0 124.5 65t46.5 175t-46.5 175t-124.5 65q-77 0 -123.5 -65t-46.5 -175t46.5 -175t123.5 -65z" />
    <glyph glyph-name="p" unicode="p" horiz-adv-x="634" 
d="M349 510q98 0 167 -75t69 -185t-69 -185t-169 -75q-107 0 -172 80v-290h-89v703l89 22v-85q29 42 74.5 66t99.5 24zM324 19q75 0 121.5 63t46.5 168q0 104 -46 167.5t-119 63.5q-46 0 -86 -26t-66 -73v-270q24 -43 63 -68t86 -25z" />
    <glyph glyph-name="q" unicode="q" horiz-adv-x="634" 
d="M459 483l89 22v-725h-89v291q-30 -37 -75 -59t-97 -22q-100 0 -169 75t-69 185t69 185t167 75q54 0 99.5 -24t74.5 -66v63zM310 19q47 0 86.5 25t62.5 69v268q-25 47 -65 73.5t-87 26.5q-74 0 -119.5 -63.5t-45.5 -167.5q0 -105 46.5 -168t121.5 -63z" />
    <glyph glyph-name="r" unicode="r" horiz-adv-x="463" 
d="M324 510q50 0 82 -31.5t32 -78.5h-21q0 38 -26 63t-66 25q-51 0 -91.5 -34t-58.5 -91v-363h-89v483l89 22v-99q21 47 61 75.5t88 28.5z" />
    <glyph glyph-name="s" unicode="s" horiz-adv-x="475" 
d="M243 -10q-81 0 -137.5 40t-56.5 100h21q0 -50 48 -84.5t116 -34.5q59 0 95.5 24t36.5 62q0 19 -10 35.5t-32 30.5t-41.5 23.5t-54.5 24.5q-27 12 -38 17t-36.5 18t-37.5 23.5t-27.5 26.5t-22 35t-6.5 41q0 62 52 100t134 38q71 0 120.5 -37t49.5 -92h-21q0 46 -40.5 77
t-100.5 31q-56 0 -92 -24t-36 -61t34.5 -61t105.5 -52q40 -17 60 -27t50 -30t43.5 -45.5t13.5 -57.5q0 -63 -51.5 -102t-138.5 -39z" />
    <glyph glyph-name="t" unicode="t" horiz-adv-x="378" 
d="M343 76h21q0 -37 -36 -61.5t-90 -24.5q-60 0 -100.5 36t-40.5 90v364h-64v20h64v113l89 24v-137h152v-20h-152v-380q0 -35 22.5 -59t56.5 -24q33 0 55.5 17t22.5 42z" />
    <glyph glyph-name="u" unicode="u" horiz-adv-x="615" 
d="M440 483l89 22v-505h-89v95q-27 -47 -77 -76t-109 -29q-76 0 -126.5 48.5t-50.5 121.5v323l89 22v-367q0 -49 32.5 -81.5t83.5 -32.5q48 0 92 29.5t66 77.5v352z" />
    <glyph glyph-name="v" unicode="v" horiz-adv-x="507" 
d="M466 500h28l-219 -500h-39l-219 500h92l179 -409z" />
    <glyph glyph-name="w" unicode="w" horiz-adv-x="810" 
d="M769 500h28l-219 -500h-40l-131 300l-132 -300h-39l-219 500h92l179 -409l105 241l-74 168h93l179 -410z" />
    <glyph glyph-name="x" unicode="x" horiz-adv-x="484" 
d="M462 0h-97l-147 214l-148 -214h-31l165 236l-181 264h98l143 -209l145 209h31l-162 -231z" />
    <glyph glyph-name="y" unicode="y" horiz-adv-x="502" 
d="M461 500h28l-287 -655q-33 -75 -108 -75q-39 0 -68.5 28t-29.5 66h21q0 -30 23.5 -52t53.5 -22q58 0 83 57l61 140l-225 513h93l177 -409z" />
    <glyph glyph-name="z" unicode="z" horiz-adv-x="488" 
d="M445 500v-16l-301 -464h299v-20h-398v16l300 464h-285v20h385z" />
    <glyph glyph-name="quoteright" unicode="&#x2019;" horiz-adv-x="195" 
d="M96 710q26 0 45 -19.5t19 -53.5q0 -45 -29.5 -94.5t-67.5 -68.5l-12 13q24 16 42.5 45t23.5 59q-10 -4 -20 -4q-26 0 -44 17.5t-18 43.5t17.5 44t43.5 18z" />
    <glyph glyph-name="quotesinglbase" unicode="&#x201a;" horiz-adv-x="215" 
d="M109 118q26 0 45 -19.5t19 -53.5q0 -45 -30 -94t-68 -69l-11 13q23 16 41.5 45.5t23.5 58.5q-10 -4 -20 -4q-26 0 -44 17.5t-18 43.5t18 44t44 18z" />
    <glyph glyph-name="quotedblleft" unicode="&#x201c;" horiz-adv-x="377" 
d="M98 607q26 0 44 -17.5t18 -43.5t-17.5 -44t-43.5 -18t-45 19.5t-19 53.5q0 45 29.5 94t67.5 69l12 -13q-24 -16 -42.5 -45t-23.5 -59q10 4 20 4zM280 607q26 0 44 -17.5t18 -43.5t-18 -44t-44 -18t-45 19.5t-19 53.5q0 45 30 94t68 69l11 -13q-23 -16 -41.5 -45.5
t-23.5 -58.5q10 4 20 4z" />
    <glyph glyph-name="quotedblright" unicode="&#x201d;" horiz-adv-x="377" 
d="M96 710q26 0 45 -19.5t19 -53.5q0 -45 -29.5 -94.5t-67.5 -68.5l-12 13q24 16 42.5 45t23.5 59q-10 -4 -20 -4q-26 0 -44 17.5t-18 43.5t17.5 44t43.5 18zM278 710q26 0 45 -19.5t19 -53.5q0 -46 -30 -95t-68 -68l-11 13q23 16 41.5 45.5t23.5 58.5q-7 -4 -19 -4
q-26 0 -44.5 17.5t-18.5 43.5t18 44t44 18z" />
    <glyph glyph-name="exclam" 
 />
    <glyph glyph-name="quotedbl" 
 />
    <glyph glyph-name="numbersign" 
 />
    <glyph glyph-name="dollar" 
 />
    <glyph glyph-name="percent" 
 />
    <glyph glyph-name="ampersand" 
 />
    <glyph glyph-name="slash" 
 />
    <glyph glyph-name="two" 
 />
    <glyph glyph-name="seven" 
 />
    <glyph glyph-name="nine" 
 />
    <glyph glyph-name="colon" 
 />
    <glyph glyph-name="semicolon" 
 />
    <glyph glyph-name="less" 
 />
    <glyph glyph-name="equal" 
 />
    <glyph glyph-name="greater" 
 />
    <glyph glyph-name="question" 
 />
    <glyph glyph-name="at" 
 />
    <glyph glyph-name="B" 
 />
    <glyph glyph-name="D" 
 />
    <glyph glyph-name="E" 
 />
    <glyph glyph-name="F" 
 />
    <glyph glyph-name="G" 
 />
    <glyph glyph-name="H" 
 />
    <glyph glyph-name="J" 
 />
    <glyph glyph-name="K" 
 />
    <glyph glyph-name="L" 
 />
    <glyph glyph-name="M" 
 />
    <glyph glyph-name="N" 
 />
    <glyph glyph-name="O" 
 />
    <glyph glyph-name="Q" 
 />
    <glyph glyph-name="R" 
 />
    <glyph glyph-name="S" 
 />
    <glyph glyph-name="V" 
 />
    <glyph glyph-name="X" 
 />
    <glyph glyph-name="Y" 
 />
    <glyph glyph-name="Z" 
 />
    <glyph glyph-name="braceleft" 
 />
    <glyph glyph-name="bar" 
 />
    <glyph glyph-name="braceright" 
 />
    <glyph glyph-name="asciitilde" 
 />
    <glyph glyph-name="exclamdown" 
 />
    <glyph glyph-name="cent" 
 />
    <glyph glyph-name="sterling" 
 />
    <glyph glyph-name="currency" 
 />
    <glyph glyph-name="yen" 
 />
    <glyph glyph-name="brokenbar" 
 />
    <glyph glyph-name="section" 
 />
    <glyph glyph-name="dieresis" 
 />
    <glyph glyph-name="copyright" 
 />
    <glyph glyph-name="ordfeminine" 
 />
    <glyph glyph-name="guillemotleft" 
 />
    <glyph glyph-name="registered" 
 />
    <glyph glyph-name="macron" 
 />
    <glyph glyph-name="degree" 
 />
    <glyph glyph-name="plusminus" 
 />
    <glyph glyph-name="uni00B2" 
 />
    <glyph glyph-name="uni00B3" 
 />
    <glyph glyph-name="acute" 
 />
    <glyph glyph-name="paragraph" 
 />
    <glyph glyph-name="periodcentered" 
 />
    <glyph glyph-name="cedilla" 
 />
    <glyph glyph-name="uni00B9" 
 />
    <glyph glyph-name="ordmasculine" 
 />
    <glyph glyph-name="guillemotright" 
 />
    <glyph glyph-name="onequarter" 
 />
    <glyph glyph-name="onehalf" 
 />
    <glyph glyph-name="threequarters" 
 />
    <glyph glyph-name="questiondown" 
 />
    <glyph glyph-name="Agrave" 
 />
    <glyph glyph-name="Aacute" 
 />
    <glyph glyph-name="Acircumflex" 
 />
    <glyph glyph-name="Atilde" 
 />
    <glyph glyph-name="Adieresis" 
 />
    <glyph glyph-name="Aring" 
 />
    <glyph glyph-name="AE" 
 />
    <glyph glyph-name="Ccedilla" 
 />
    <glyph glyph-name="Egrave" 
 />
    <glyph glyph-name="Eacute" 
 />
    <glyph glyph-name="Ecircumflex" 
 />
    <glyph glyph-name="Edieresis" 
 />
    <glyph glyph-name="Igrave" 
 />
    <glyph glyph-name="Iacute" 
 />
    <glyph glyph-name="Icircumflex" 
 />
    <glyph glyph-name="Idieresis" 
 />
    <glyph glyph-name="Eth" 
 />
    <glyph glyph-name="Ntilde" 
 />
    <glyph glyph-name="Ograve" 
 />
    <glyph glyph-name="Oacute" 
 />
    <glyph glyph-name="Ocircumflex" 
 />
    <glyph glyph-name="Otilde" 
 />
    <glyph glyph-name="Odieresis" 
 />
    <glyph glyph-name="multiply" 
 />
    <glyph glyph-name="Oslash" 
 />
    <glyph glyph-name="Ugrave" 
 />
    <glyph glyph-name="Uacute" 
 />
    <glyph glyph-name="Ucircumflex" 
 />
    <glyph glyph-name="Udieresis" 
 />
    <glyph glyph-name="Yacute" 
 />
    <glyph glyph-name="Thorn" 
 />
    <glyph glyph-name="germandbls" 
 />
    <glyph glyph-name="agrave" 
 />
    <glyph glyph-name="aacute" 
 />
    <glyph glyph-name="acircumflex" 
 />
    <glyph glyph-name="atilde" 
 />
    <glyph glyph-name="adieresis" 
 />
    <glyph glyph-name="aring" 
 />
    <glyph glyph-name="ae" 
 />
    <glyph glyph-name="ccedilla" 
 />
    <glyph glyph-name="egrave" 
 />
    <glyph glyph-name="eacute" 
 />
    <glyph glyph-name="ecircumflex" 
 />
    <glyph glyph-name="edieresis" 
 />
    <glyph glyph-name="igrave" 
 />
    <glyph glyph-name="iacute" 
 />
    <glyph glyph-name="icircumflex" 
 />
    <glyph glyph-name="idieresis" 
 />
    <glyph glyph-name="eth" 
 />
    <glyph glyph-name="ntilde" 
 />
    <glyph glyph-name="ograve" 
 />
    <glyph glyph-name="oacute" 
 />
    <glyph glyph-name="ocircumflex" 
 />
    <glyph glyph-name="otilde" 
 />
    <glyph glyph-name="odieresis" 
 />
    <glyph glyph-name="divide" 
 />
    <glyph glyph-name="oslash" 
 />
    <glyph glyph-name="ugrave" 
 />
    <glyph glyph-name="uacute" 
 />
    <glyph glyph-name="ucircumflex" 
 />
    <glyph glyph-name="udieresis" 
 />
    <glyph glyph-name="yacute" 
 />
    <glyph glyph-name="thorn" 
 />
    <glyph glyph-name="ydieresis" 
 />
    <glyph glyph-name="Amacron" 
 />
    <glyph glyph-name="amacron" 
 />
    <glyph glyph-name="Abreve" 
 />
    <glyph glyph-name="abreve" 
 />
    <glyph glyph-name="Aogonek" 
 />
    <glyph glyph-name="aogonek" 
 />
    <glyph glyph-name="Cacute" 
 />
    <glyph glyph-name="cacute" 
 />
    <glyph glyph-name="Ccircumflex" 
 />
    <glyph glyph-name="ccircumflex" 
 />
    <glyph glyph-name="Cdotaccent" 
 />
    <glyph glyph-name="cdotaccent" 
 />
    <glyph glyph-name="Ccaron" 
 />
    <glyph glyph-name="ccaron" 
 />
    <glyph glyph-name="Dcaron" 
 />
    <glyph glyph-name="dcaron" 
 />
    <glyph glyph-name="Dcroat" 
 />
    <glyph glyph-name="dcroat" 
 />
    <glyph glyph-name="Emacron" 
 />
    <glyph glyph-name="emacron" 
 />
    <glyph glyph-name="Ebreve" 
 />
    <glyph glyph-name="ebreve" 
 />
    <glyph glyph-name="Edotaccent" 
 />
    <glyph glyph-name="edotaccent" 
 />
    <glyph glyph-name="Eogonek" 
 />
    <glyph glyph-name="eogonek" 
 />
    <glyph glyph-name="Ecaron" 
 />
    <glyph glyph-name="ecaron" 
 />
    <glyph glyph-name="Gcircumflex" 
 />
    <glyph glyph-name="gcircumflex" 
 />
    <glyph glyph-name="Gbreve" 
 />
    <glyph glyph-name="gbreve" 
 />
    <glyph glyph-name="Gdotaccent" 
 />
    <glyph glyph-name="gdotaccent" 
 />
    <glyph glyph-name="uni0122" 
 />
    <glyph glyph-name="uni0123" 
 />
    <glyph glyph-name="Hcircumflex" 
 />
    <glyph glyph-name="hcircumflex" 
 />
    <glyph glyph-name="Hbar" 
 />
    <glyph glyph-name="hbar" 
 />
    <glyph glyph-name="Itilde" 
 />
    <glyph glyph-name="itilde" 
 />
    <glyph glyph-name="Imacron" 
 />
    <glyph glyph-name="imacron" 
 />
    <glyph glyph-name="Ibreve" 
 />
    <glyph glyph-name="ibreve" 
 />
    <glyph glyph-name="Iogonek" 
 />
    <glyph glyph-name="iogonek" 
 />
    <glyph glyph-name="Idotaccent" 
 />
    <glyph glyph-name="dotlessi" 
 />
    <glyph glyph-name="IJ" 
 />
    <glyph glyph-name="ij" 
 />
    <glyph glyph-name="Jcircumflex" 
 />
    <glyph glyph-name="jcircumflex" 
 />
    <glyph glyph-name="uni0136" 
 />
    <glyph glyph-name="uni0137" 
 />
    <glyph glyph-name="kgreenlandic" 
 />
    <glyph glyph-name="Lacute" 
 />
    <glyph glyph-name="lacute" 
 />
    <glyph glyph-name="uni013B" 
 />
    <glyph glyph-name="uni013C" 
 />
    <glyph glyph-name="Lcaron" 
 />
    <glyph glyph-name="lcaron" 
 />
    <glyph glyph-name="Ldot" 
 />
    <glyph glyph-name="ldot" 
 />
    <glyph glyph-name="Lslash" 
 />
    <glyph glyph-name="lslash" 
 />
    <glyph glyph-name="Nacute" 
 />
    <glyph glyph-name="nacute" 
 />
    <glyph glyph-name="uni0145" 
 />
    <glyph glyph-name="uni0146" 
 />
    <glyph glyph-name="Ncaron" 
 />
    <glyph glyph-name="ncaron" 
 />
    <glyph glyph-name="Eng" 
 />
    <glyph glyph-name="eng" 
 />
    <glyph glyph-name="Omacron" 
 />
    <glyph glyph-name="omacron" 
 />
    <glyph glyph-name="Obreve" 
 />
    <glyph glyph-name="obreve" 
 />
    <glyph glyph-name="Ohungarumlaut" 
 />
    <glyph glyph-name="ohungarumlaut" 
 />
    <glyph glyph-name="OE" 
 />
    <glyph glyph-name="oe" 
 />
    <glyph glyph-name="Racute" 
 />
    <glyph glyph-name="racute" 
 />
    <glyph glyph-name="uni0156" 
 />
    <glyph glyph-name="uni0157" 
 />
    <glyph glyph-name="Rcaron" 
 />
    <glyph glyph-name="rcaron" 
 />
    <glyph glyph-name="Sacute" 
 />
    <glyph glyph-name="sacute" 
 />
    <glyph glyph-name="Scircumflex" 
 />
    <glyph glyph-name="scircumflex" 
 />
    <glyph glyph-name="Scedilla" 
 />
    <glyph glyph-name="scedilla" 
 />
    <glyph glyph-name="Scaron" 
 />
    <glyph glyph-name="scaron" 
 />
    <glyph glyph-name="uni0162" 
 />
    <glyph glyph-name="uni0163" 
 />
    <glyph glyph-name="Tcaron" 
 />
    <glyph glyph-name="tcaron" 
 />
    <glyph glyph-name="Tbar" 
 />
    <glyph glyph-name="tbar" 
 />
    <glyph glyph-name="Utilde" 
 />
    <glyph glyph-name="utilde" 
 />
    <glyph glyph-name="Umacron" 
 />
    <glyph glyph-name="umacron" 
 />
    <glyph glyph-name="Ubreve" 
 />
    <glyph glyph-name="ubreve" 
 />
    <glyph glyph-name="Uring" 
 />
    <glyph glyph-name="uring" 
 />
    <glyph glyph-name="Uhungarumlaut" 
 />
    <glyph glyph-name="uhungarumlaut" 
 />
    <glyph glyph-name="Uogonek" 
 />
    <glyph glyph-name="uogonek" 
 />
    <glyph glyph-name="Wcircumflex" 
 />
    <glyph glyph-name="wcircumflex" 
 />
    <glyph glyph-name="Ycircumflex" 
 />
    <glyph glyph-name="ycircumflex" 
 />
    <glyph glyph-name="Ydieresis" 
 />
    <glyph glyph-name="Zacute" 
 />
    <glyph glyph-name="zacute" 
 />
    <glyph glyph-name="Zdotaccent" 
 />
    <glyph glyph-name="zdotaccent" 
 />
    <glyph glyph-name="Zcaron" 
 />
    <glyph glyph-name="zcaron" 
 />
    <glyph glyph-name="florin" 
 />
    <glyph glyph-name="uni01C4" 
 />
    <glyph glyph-name="uni01C5" 
 />
    <glyph glyph-name="uni01C6" 
 />
    <glyph glyph-name="uni01C7" 
 />
    <glyph glyph-name="uni01C8" 
 />
    <glyph glyph-name="uni01C9" 
 />
    <glyph glyph-name="uni01CA" 
 />
    <glyph glyph-name="uni01CB" 
 />
    <glyph glyph-name="uni01CC" 
 />
    <glyph glyph-name="uni01CD" 
 />
    <glyph glyph-name="uni01CE" 
 />
    <glyph glyph-name="Gcaron" 
 />
    <glyph glyph-name="gcaron" 
 />
    <glyph glyph-name="uni01EA" 
 />
    <glyph glyph-name="uni01EB" 
 />
    <glyph glyph-name="uni01F1" 
 />
    <glyph glyph-name="uni01F2" 
 />
    <glyph glyph-name="uni01F3" 
 />
    <glyph glyph-name="uni01F4" 
 />
    <glyph glyph-name="uni01F5" 
 />
    <glyph glyph-name="AEacute" 
 />
    <glyph glyph-name="aeacute" 
 />
    <glyph glyph-name="Oslashacute" 
 />
    <glyph glyph-name="oslashacute" 
 />
    <glyph glyph-name="uni0200" 
 />
    <glyph glyph-name="uni0201" 
 />
    <glyph glyph-name="uni0202" 
 />
    <glyph glyph-name="uni0203" 
 />
    <glyph glyph-name="uni0204" 
 />
    <glyph glyph-name="uni0205" 
 />
    <glyph glyph-name="uni0206" 
 />
    <glyph glyph-name="uni0207" 
 />
    <glyph glyph-name="uni0208" 
 />
    <glyph glyph-name="uni0209" 
 />
    <glyph glyph-name="uni020A" 
 />
    <glyph glyph-name="uni020B" 
 />
    <glyph glyph-name="uni020C" 
 />
    <glyph glyph-name="uni020D" 
 />
    <glyph glyph-name="uni020E" 
 />
    <glyph glyph-name="uni020F" 
 />
    <glyph glyph-name="uni0210" 
 />
    <glyph glyph-name="uni0211" 
 />
    <glyph glyph-name="uni0212" 
 />
    <glyph glyph-name="uni0213" 
 />
    <glyph glyph-name="uni0214" 
 />
    <glyph glyph-name="uni0215" 
 />
    <glyph glyph-name="uni0216" 
 />
    <glyph glyph-name="uni0217" 
 />
    <glyph glyph-name="uni0218" 
 />
    <glyph glyph-name="uni0219" 
 />
    <glyph glyph-name="uni021A" 
 />
    <glyph glyph-name="uni021B" 
 />
    <glyph glyph-name="uni0232" 
 />
    <glyph glyph-name="uni0233" 
 />
    <glyph glyph-name="uni0237" 
 />
    <glyph glyph-name="uni02BC" 
 />
    <glyph glyph-name="circumflex" 
 />
    <glyph glyph-name="caron" 
 />
    <glyph glyph-name="breve" 
 />
    <glyph glyph-name="dotaccent" 
 />
    <glyph glyph-name="ring" 
 />
    <glyph glyph-name="ogonek" 
 />
    <glyph glyph-name="tilde" 
 />
    <glyph glyph-name="hungarumlaut" 
 />
    <glyph glyph-name="gravecomb" 
 />
    <glyph glyph-name="acutecomb" 
 />
    <glyph glyph-name="uni0302" 
 />
    <glyph glyph-name="tildecomb" 
 />
    <glyph glyph-name="uni0304" 
 />
    <glyph glyph-name="uni0306" 
 />
    <glyph glyph-name="uni0307" 
 />
    <glyph glyph-name="uni0308" 
 />
    <glyph glyph-name="uni030A" 
 />
    <glyph glyph-name="uni030B" 
 />
    <glyph glyph-name="uni030C" 
 />
    <glyph glyph-name="uni030F" 
 />
    <glyph glyph-name="uni0311" 
 />
    <glyph glyph-name="uni0312" 
 />
    <glyph glyph-name="dotbelowcomb" 
 />
    <glyph glyph-name="uni0326" 
 />
    <glyph glyph-name="uni0327" 
 />
    <glyph glyph-name="uni0328" 
 />
    <glyph glyph-name="uni0335" 
 />
    <glyph glyph-name="uni0336" 
 />
    <glyph glyph-name="uni0337" 
 />
    <glyph glyph-name="uni0338" 
 />
    <glyph glyph-name="uni1E0C" 
 />
    <glyph glyph-name="uni1E0D" 
 />
    <glyph glyph-name="uni1E24" 
 />
    <glyph glyph-name="uni1E25" 
 />
    <glyph glyph-name="uni1E44" 
 />
    <glyph glyph-name="uni1E45" 
 />
    <glyph glyph-name="uni1E5A" 
 />
    <glyph glyph-name="uni1E5B" 
 />
    <glyph glyph-name="uni1E62" 
 />
    <glyph glyph-name="uni1E63" 
 />
    <glyph glyph-name="uni1E6C" 
 />
    <glyph glyph-name="uni1E6D" 
 />
    <glyph glyph-name="Wgrave" 
 />
    <glyph glyph-name="wgrave" 
 />
    <glyph glyph-name="Wacute" 
 />
    <glyph glyph-name="wacute" 
 />
    <glyph glyph-name="Wdieresis" 
 />
    <glyph glyph-name="wdieresis" 
 />
    <glyph glyph-name="uni1E92" 
 />
    <glyph glyph-name="uni1E93" 
 />
    <glyph glyph-name="uni1E9E" 
 />
    <glyph glyph-name="uni1EA0" 
 />
    <glyph glyph-name="uni1EA1" 
 />
    <glyph glyph-name="uni1EB8" 
 />
    <glyph glyph-name="uni1EB9" 
 />
    <glyph glyph-name="uni1EBC" 
 />
    <glyph glyph-name="uni1EBD" 
 />
    <glyph glyph-name="uni1ECA" 
 />
    <glyph glyph-name="uni1ECB" 
 />
    <glyph glyph-name="uni1ECC" 
 />
    <glyph glyph-name="uni1ECD" 
 />
    <glyph glyph-name="uni1EE4" 
 />
    <glyph glyph-name="uni1EE5" 
 />
    <glyph glyph-name="Ygrave" 
 />
    <glyph glyph-name="ygrave" 
 />
    <glyph glyph-name="uni1EF8" 
 />
    <glyph glyph-name="uni1EF9" 
 />
    <glyph glyph-name="endash" 
 />
    <glyph glyph-name="emdash" 
 />
    <glyph glyph-name="quoteleft" 
 />
    <glyph glyph-name="quotedblbase" 
 />
    <glyph glyph-name="dagger" 
 />
    <glyph glyph-name="daggerdbl" 
 />
    <glyph glyph-name="bullet" 
 />
    <glyph glyph-name="ellipsis" 
 />
    <glyph glyph-name="perthousand" 
 />
    <glyph glyph-name="guilsinglleft" 
 />
    <glyph glyph-name="guilsinglright" 
 />
    <glyph glyph-name="fraction" 
 />
    <glyph glyph-name="uni2070" 
 />
    <glyph glyph-name="uni2074" 
 />
    <glyph glyph-name="uni2075" 
 />
    <glyph glyph-name="uni2076" 
 />
    <glyph glyph-name="uni2077" 
 />
    <glyph glyph-name="uni2078" 
 />
    <glyph glyph-name="uni2079" 
 />
    <glyph glyph-name="uni2080" 
 />
    <glyph glyph-name="uni2081" 
 />
    <glyph glyph-name="uni2082" 
 />
    <glyph glyph-name="uni2083" 
 />
    <glyph glyph-name="uni2084" 
 />
    <glyph glyph-name="uni2085" 
 />
    <glyph glyph-name="uni2086" 
 />
    <glyph glyph-name="uni2087" 
 />
    <glyph glyph-name="uni2088" 
 />
    <glyph glyph-name="uni2089" 
 />
    <glyph glyph-name="franc" 
 />
    <glyph glyph-name="uni20A8" 
 />
    <glyph glyph-name="Euro" 
 />
    <glyph glyph-name="uni2116" 
 />
    <glyph glyph-name="trademark" 
 />
    <glyph glyph-name="uni2150" 
 />
    <glyph glyph-name="uni2151" 
 />
    <glyph glyph-name="uni2152" 
 />
    <glyph glyph-name="uni2153" 
 />
    <glyph glyph-name="uni2154" 
 />
    <glyph glyph-name="uni2155" 
 />
    <glyph glyph-name="uni2156" 
 />
    <glyph glyph-name="uni2157" 
 />
    <glyph glyph-name="uni2158" 
 />
    <glyph glyph-name="uni2159" 
 />
    <glyph glyph-name="uni215A" 
 />
    <glyph glyph-name="oneeighth" 
 />
    <glyph glyph-name="threeeighths" 
 />
    <glyph glyph-name="fiveeighths" 
 />
    <glyph glyph-name="seveneighths" 
 />
    <glyph glyph-name="uni215F" 
 />
    <glyph glyph-name="uni2189" 
 />
    <glyph glyph-name="arrowleft" 
 />
    <glyph glyph-name="arrowup" 
 />
    <glyph glyph-name="arrowright" 
 />
    <glyph glyph-name="arrowdown" 
 />
    <glyph glyph-name="minus" 
 />
    <glyph glyph-name="approxequal" 
 />
    <glyph glyph-name="notequal" 
 />
    <glyph glyph-name="lessequal" 
 />
    <glyph glyph-name="greaterequal" 
 />
    <glyph glyph-name="A.swsh" 
 />
    <glyph glyph-name="B.swsh" 
 />
    <glyph glyph-name="D.swsh" 
 />
    <glyph glyph-name="E.swsh" 
 />
    <glyph glyph-name="F.swsh" 
 />
    <glyph glyph-name="H.swsh" 
 />
    <glyph glyph-name="I.swsh" 
 />
    <glyph glyph-name="K.swsh" 
 />
    <glyph glyph-name="L.swsh" 
 />
    <glyph glyph-name="M.swsh" 
 />
    <glyph glyph-name="N.swsh" 
 />
    <glyph glyph-name="P.swsh" 
 />
    <glyph glyph-name="R.swsh" 
 />
    <glyph glyph-name="T.swsh" 
 />
    <glyph glyph-name="U.swsh" 
 />
    <glyph glyph-name="V.swsh" 
 />
    <glyph glyph-name="W.swsh" 
 />
    <glyph glyph-name="X.swsh" 
 />
    <glyph glyph-name="Y.swsh" 
 />
    <glyph glyph-name="uniE079" 
 />
    <glyph glyph-name="Q.ss02" 
 />
    <glyph glyph-name="W.ss02" 
 />
    <glyph glyph-name="Wacute.ss02" 
 />
    <glyph glyph-name="Wcircumflex.ss02" 
 />
    <glyph glyph-name="Wdieresis.ss02" 
 />
    <glyph glyph-name="Wgrave.ss02" 
 />
    <glyph glyph-name="Q.ss03" 
 />
    <glyph glyph-name="G.ss04" 
 />
    <glyph glyph-name="uni01F4.ss04" 
 />
    <glyph glyph-name="Gbreve.ss04" 
 />
    <glyph glyph-name="Gcaron.ss04" 
 />
    <glyph glyph-name="Gcircumflex.ss04" 
 />
    <glyph glyph-name="uni0122.ss04" 
 />
    <glyph glyph-name="Gdotaccent.ss04" 
 />
    <glyph glyph-name="M.ss04" 
 />
    <glyph glyph-name="R.ss04" 
 />
    <glyph glyph-name="Racute.ss04" 
 />
    <glyph glyph-name="Rcaron.ss04" 
 />
    <glyph glyph-name="uni0156.ss04" 
 />
    <glyph glyph-name="uni0210.ss04" 
 />
    <glyph glyph-name="uni1E5A.ss04" 
 />
    <glyph glyph-name="uni0212.ss04" 
 />
    <glyph glyph-name="C.ss05" 
 />
    <glyph glyph-name="Cacute.ss05" 
 />
    <glyph glyph-name="Ccaron.ss05" 
 />
    <glyph glyph-name="Ccedilla.ss05" 
 />
    <glyph glyph-name="Ccircumflex.ss05" 
 />
    <glyph glyph-name="Cdotaccent.ss05" 
 />
    <glyph glyph-name="i.loclTRK" 
 />
    <glyph glyph-name="a.ss01" 
 />
    <glyph glyph-name="aacute.ss01" 
 />
    <glyph glyph-name="abreve.ss01" 
 />
    <glyph glyph-name="uni01CE.ss01" 
 />
    <glyph glyph-name="acircumflex.ss01" 
 />
    <glyph glyph-name="uni0201.ss01" 
 />
    <glyph glyph-name="adieresis.ss01" 
 />
    <glyph glyph-name="uni1EA1.ss01" 
 />
    <glyph glyph-name="agrave.ss01" 
 />
    <glyph glyph-name="uni0203.ss01" 
 />
    <glyph glyph-name="amacron.ss01" 
 />
    <glyph glyph-name="aogonek.ss01" 
 />
    <glyph glyph-name="aring.ss01" 
 />
    <glyph glyph-name="atilde.ss01" 
 />
    <glyph glyph-name="u.ss02" 
 />
    <glyph glyph-name="uacute.ss02" 
 />
    <glyph glyph-name="ubreve.ss02" 
 />
    <glyph glyph-name="ucircumflex.ss02" 
 />
    <glyph glyph-name="uni0215.ss02" 
 />
    <glyph glyph-name="udieresis.ss02" 
 />
    <glyph glyph-name="uni1EE5.ss02" 
 />
    <glyph glyph-name="ugrave.ss02" 
 />
    <glyph glyph-name="uhungarumlaut.ss02" 
 />
    <glyph glyph-name="uni0217.ss02" 
 />
    <glyph glyph-name="umacron.ss02" 
 />
    <glyph glyph-name="uogonek.ss02" 
 />
    <glyph glyph-name="uring.ss02" 
 />
    <glyph glyph-name="utilde.ss02" 
 />
    <glyph glyph-name="w.ss02" 
 />
    <glyph glyph-name="wacute.ss02" 
 />
    <glyph glyph-name="wcircumflex.ss02" 
 />
    <glyph glyph-name="wdieresis.ss02" 
 />
    <glyph glyph-name="wgrave.ss02" 
 />
    <glyph glyph-name="y.ss02" 
 />
    <glyph glyph-name="yacute.ss02" 
 />
    <glyph glyph-name="ycircumflex.ss02" 
 />
    <glyph glyph-name="ydieresis.ss02" 
 />
    <glyph glyph-name="ygrave.ss02" 
 />
    <glyph glyph-name="uni0233.ss02" 
 />
    <glyph glyph-name="uni1EF9.ss02" 
 />
    <glyph glyph-name="f.ss03" 
 />
    <glyph glyph-name="c.ss05" 
 />
    <glyph glyph-name="cacute.ss05" 
 />
    <glyph glyph-name="ccaron.ss05" 
 />
    <glyph glyph-name="ccedilla.ss05" 
 />
    <glyph glyph-name="ccircumflex.ss05" 
 />
    <glyph glyph-name="cdotaccent.ss05" 
 />
    <glyph glyph-name="r.ss05" 
 />
    <glyph glyph-name="racute.ss05" 
 />
    <glyph glyph-name="rcaron.ss05" 
 />
    <glyph glyph-name="uni0157.ss05" 
 />
    <glyph glyph-name="uni0211.ss05" 
 />
    <glyph glyph-name="uni1E5B.ss05" 
 />
    <glyph glyph-name="uni0213.ss05" 
 />
    <glyph glyph-name="t_t.dlig" 
 />
    <glyph glyph-name="zero.dnom" 
 />
    <glyph glyph-name="one.dnom" 
 />
    <glyph glyph-name="two.dnom" 
 />
    <glyph glyph-name="three.dnom" 
 />
    <glyph glyph-name="four.dnom" 
 />
    <glyph glyph-name="five.dnom" 
 />
    <glyph glyph-name="six.dnom" 
 />
    <glyph glyph-name="seven.dnom" 
 />
    <glyph glyph-name="eight.dnom" 
 />
    <glyph glyph-name="nine.dnom" 
 />
    <glyph glyph-name="zero.numr" 
 />
    <glyph glyph-name="one.numr" 
 />
    <glyph glyph-name="two.numr" 
 />
    <glyph glyph-name="three.numr" 
 />
    <glyph glyph-name="four.numr" 
 />
    <glyph glyph-name="five.numr" 
 />
    <glyph glyph-name="six.numr" 
 />
    <glyph glyph-name="seven.numr" 
 />
    <glyph glyph-name="eight.numr" 
 />
    <glyph glyph-name="nine.numr" 
 />
    <glyph glyph-name="caroncomb.alt" 
 />
    <glyph glyph-name="caron.alt" 
 />
    </font>
</defs>
</svg>
